<svg viewBox="0 0 32 32">
    <path
        d="M16.023 0c-8.828 0-15.984 7.156-15.984 15.983 0 6.772 4.211 12.556 10.157 14.883-0.14-1.265-0.265-3.204 0.055-4.585 0.292-1.249 1.875-7.943 1.875-7.943s-0.479-0.96-0.479-2.375c0-2.217 1.289-3.881 2.891-3.881 1.365 0 2.024 1.025 2.024 2.251 0 1.372-0.871 3.423-1.323 5.323-0.38 1.591 0.8 2.887 2.367 2.887 2.837 0 5.024-2.993 5.024-7.316 0-3.815-2.751-6.492-6.677-6.492-4.547 0-7.212 3.416-7.212 6.932 0 1.377 0.525 2.857 1.185 3.655 0.132 0.16 0.149 0.3 0.113 0.46-0.12 0.5-0.391 1.599-0.445 1.817-0.071 0.3-0.229 0.361-0.535 0.22-1.993-0.92-3.244-3.837-3.244-6.195 0-5.035 3.664-9.669 10.56-9.669 5.544 0 9.856 3.956 9.856 9.231 0 5.513-3.476 9.949-8.311 9.949-1.619 0-3.139-0.839-3.677-1.839l-0.999 3.797c-0.359 1.393-1.339 3.136-1.997 4.195 1.497 0.46 3.075 0.713 4.733 0.713 8.809 0 15.98-7.153 15.98-15.983 0-8.831-7.171-15.983-15.98-15.983z">
    </path>
</svg>