<?xml version="1.0" encoding="iso-8859-1"?>
<!-- Generator: Adobe Illustrator 19.1.0, SVG Export Plug-In . SVG Version: 6.00 Build 0)  -->
<svg version="1.1" id="Capa_1" xmlns="http://www.w3.org/2000/svg" xmlns:xlink="http://www.w3.org/1999/xlink" x="0px" y="0px"
	 viewBox="0 0 482.8 482.8" style="enable-background:new 0 0 482.8 482.8;" xml:space="preserve">
<g>
	<g>
		<path d="M431.3,114.5c-1.4-3.3-3.5-6.4-6.1-8.9l-101.9-98c-2.5-2.4-5.4-4.3-8.6-5.6l0,0c-3.2-1.3-6.6-2-10.1-2H109
			C76,0,49.3,26.7,49.3,59.7v363.4c0,33,26.7,59.7,59.7,59.7h264.8c33,0,59.7-26.7,59.7-59.7v-298
			C433.5,121.5,432.7,117.9,431.3,114.5z M405.3,423.2c0,17.4-14.2,31.5-31.5,31.5H109c-17.4,0-31.5-14.2-31.5-31.5V59.8
			c0-17.4,14.1-31.5,31.5-31.5h186.7V74c0,32.9,26.8,59.7,59.7,59.7h49.9V423.2z"/>
		<path d="M110,241.5L110,241.5c0,7.7,6.3,14.1,14.1,14.1h237.1c7.7,0,14.1-6.3,14.1-14.1l0,0c0-7.7-6.3-14.1-14.1-14.1H124.1
			C116.3,227.4,110,233.8,110,241.5z"/>
		<path d="M361.1,283.7h-237c-7.7,0-14.1,6.3-14.1,14.1l0,0c0,7.7,6.3,14.1,14.1,14.1h237.1c7.7,0,14.1-6.3,14.1-14.1l0,0
			C375.2,290,368.9,283.7,361.1,283.7z"/>
		<path d="M361.1,340h-237c-7.7,0-14.1,6.3-14.1,14.1l0,0c0,7.7,6.3,14.1,14.1,14.1h237.1c7.7,0,14.1-6.3,14.1-14.1l0,0
			C375.2,346.3,368.9,340,361.1,340z"/>
		<path d="M255.1,396.2H122.9c-7.7,0-14.1,6.3-14.1,14.1s6.3,14.1,14.1,14.1h132.3c7.7,0,14.1-6.3,14.1-14.1
			S262.9,396.2,255.1,396.2z"/>
		<path d="M172.2,201.3h61.9c-0.3-25.7,0.7-39.5-16-45.6c-15.2-5.8-24.2-11.7-24.2-11.7l-11.7,36.9l-1.6,5l-5.2-14.8
			c12-16.8-0.9-17.6-3.2-17.6l0,0l0,0l0,0l0,0l0,0l0,0c-2.2,0-15.2,0.8-3.2,17.6l-5.2,14.8l-1.6-5L150.4,144c0,0-9.1,5.9-24.2,11.7
			c-16.7,6.1-15.7,19.8-16,45.6H169L172.2,201.3L172.2,201.3z"/>
		<path d="M145.8,120.6c1.3,8.7,8,19.7,19,23.6c4.5,1.6,9.5,1.6,14,0c10.8-3.9,17.7-14.9,19.1-23.6c1.5-0.1,3.4-2.2,5.4-9.5
			c2.8-10-0.2-11.5-2.7-11.2c0.5-1.4,0.9-2.7,1.1-4.1c4.3-25.8-8.4-26.7-8.4-26.7s-2.1-4.1-7.7-7.1c-3.7-2.2-8.9-3.9-15.7-3.3
			c-2.2,0.1-4.3,0.5-6.3,1.2l0,0c-2.5,0.8-4.8,2.1-6.9,3.5c-2.6,1.6-5,3.6-7.1,5.9c-3.4,3.4-6.4,7.9-7.7,13.5
			c-1.1,4.2-0.8,8.5,0.1,13.1l0,0c0.2,1.4,0.6,2.7,1.1,4.1c-2.5-0.2-5.5,1.2-2.7,11.2C142.5,118.4,144.4,120.5,145.8,120.6z"/>
	</g>
</g>
<g>
</g>
<g>
</g>
<g>
</g>
<g>
</g>
<g>
</g>
<g>
</g>
<g>
</g>
<g>
</g>
<g>
</g>
<g>
</g>
<g>
</g>
<g>
</g>
<g>
</g>
<g>
</g>
<g>
</g>
</svg>
