<svg viewBox="0 0 24 28">
    <path
        d="M19.984 17.938c0-0.219-0.125-0.375-0.344-0.422-1.422-0.313-2.5-1.297-3.094-2.609-0.047-0.125-0.109-0.25-0.109-0.391 0-0.703 1.953-0.562 1.953-1.563 0-0.422-0.516-0.688-0.891-0.688-0.359 0-0.641 0.25-0.984 0.25-0.063 0-0.125-0.016-0.187-0.031 0.031-0.594 0.078-1.188 0.078-1.781 0-0.547-0.031-1.297-0.266-1.781-0.75-1.625-2.203-2.578-3.984-2.578-1.953 0-3.437 0.719-4.297 2.578-0.234 0.484-0.266 1.234-0.266 1.781 0 0.594 0.047 1.188 0.078 1.781-0.063 0.031-0.141 0.031-0.219 0.031-0.359 0-0.641-0.234-0.969-0.234-0.391 0-0.875 0.25-0.875 0.688 0 0.969 1.953 0.844 1.953 1.547 0 0.141-0.063 0.266-0.109 0.391-0.609 1.313-1.656 2.297-3.094 2.609-0.219 0.047-0.344 0.203-0.344 0.422 0 0.719 1.656 0.984 2.141 1.062 0.141 0.375 0.078 1.031 0.641 1.031 0.391 0 0.781-0.141 1.203-0.141 1.641 0 2.078 1.484 3.984 1.484 1.984 0 2.359-1.484 4.016-1.484 0.422 0 0.812 0.125 1.219 0.125 0.547 0 0.484-0.656 0.625-1.016 0.484-0.078 2.141-0.344 2.141-1.062zM24 14c0 6.625-5.375 12-12 12s-12-5.375-12-12 5.375-12 12-12 12 5.375 12 12z">
    </path>
</svg>