<?xml version="1.0" encoding="UTF-8"?>
<svg version="1.1" xmlns="http://www.w3.org/2000/svg" xmlns:xlink="http://www.w3.org/1999/xlink">
<defs>

</defs>
<symbol id="i-discord" viewBox="0 0 32 32"><path d="M26.963 0c1.875 0 3.387 1.516 3.476 3.3V32l-3.569-3.031-1.96-1.784-2.139-1.864.893 2.94H4.947c-1.869 0-3.387-1.42-3.387-3.301V3.307C1.56 1.523 3.08.004 4.953.004h22zm-8.158 7.577h-.04l-.269.267c2.764.8 4.101 2.049 4.101 2.049-1.781-.891-3.387-1.336-4.992-1.516-1.16-.18-2.32-.085-3.3 0h-.267c-.627 0-1.96.267-3.747.98-.623.271-.98.448-.98.448s1.336-1.336 4.28-2.049l-.18-.18s-2.229-.085-4.636 1.693c0 0-2.407 4.192-2.407 9.36 0 0 1.333 2.32 4.991 2.408 0 0 .533-.711 1.073-1.336-2.053-.624-2.853-1.872-2.853-1.872s.179.088.447.267h.08c.04 0 .059.02.08.04v.008c.021.021.04.04.08.04.44.181.88.36 1.24.533.621.269 1.42.537 2.4.715 1.24.18 2.661.267 4.28 0 .8-.18 1.6-.356 2.4-.713.52-.267 1.16-.533 1.863-.983 0 0-.8 1.248-2.94 1.872.44.621 1.06 1.333 1.06 1.333 3.659-.08 5.08-2.4 5.16-2.301 0-5.16-2.42-9.36-2.42-9.36-2.18-1.619-4.22-1.68-4.58-1.68zm.224 5.884c.937 0 1.693.8 1.693 1.78 0 .987-.76 1.787-1.693 1.787s-1.693-.8-1.693-1.779c.003-.987.764-1.784 1.693-1.788zm-6.057 0c.933 0 1.688.8 1.688 1.78 0 .987-.76 1.787-1.693 1.787s-1.693-.8-1.693-1.779c0-.987.76-1.784 1.699-1.788z"/></symbol>
<symbol id="i-download" viewBox="0 0 330 330"><path d="M154.389 255.602c.351.351.719.683 1.103.998.169.138.347.258.52.388.218.164.432.333.659.484.212.142.432.265.649.395.202.121.4.248.608.359.223.12.453.221.681.328.215.102.427.21.648.301.223.092.45.167.676.247.236.085.468.175.709.248.226.068.456.119.684.176.246.062.489.131.739.181.263.052.529.083.794.121.219.031.435.073.658.095.492.048.986.075 1.48.075s.988-.026 1.479-.075c.226-.022.444-.064.667-.096.262-.037.524-.068.784-.12.255-.05.504-.121.754-.184.223-.057.448-.105.669-.172.246-.075.483-.167.724-.253.221-.08.444-.152.662-.242.225-.093.44-.202.659-.306.225-.106.452-.206.672-.324.21-.112.408-.239.611-.361.217-.13.437-.252.648-.394.222-.148.431-.314.644-.473.179-.134.362-.258.536-.4.365-.3.714-.617 1.049-.949.016-.016.034-.028.049-.044l70.002-69.998c5.858-5.858 5.858-15.355 0-21.213-5.857-5.857-15.355-5.858-21.213-.001l-44.396 44.393V25c0-8.284-6.716-15-15-15-8.284 0-15 6.716-15 15v183.785l-44.392-44.391c-5.857-5.858-15.355-5.858-21.213 0-5.858 5.858-5.858 15.355 0 21.213l69.997 69.995z"/><path d="M315 160c-8.284 0-15 6.716-15 15v115H30V175c0-8.284-6.716-15-15-15-8.284 0-15 6.716-15 15v130c0 8.284 6.716 15 15 15h300c8.284 0 15-6.716 15-15V175c0-8.284-6.716-15-15-15z"/></symbol>
<symbol id="i-dribble" viewBox="0 0 32 32"><path d="M16 32C7.175 32 0 24.825 0 16S7.175 0 16 0s16 7.175 16 16-7.175 16-16 16zm13.494-13.812c-.469-.15-4.231-1.269-8.512-.581 1.788 4.912 2.512 8.912 2.656 9.744 3.063-2.075 5.25-5.356 5.856-9.163zM21.337 28.6c-.206-1.2-.994-5.375-2.913-10.363-.031.012-.063.019-.087.031-7.713 2.688-10.481 8.031-10.725 8.531a13.612 13.612 0 008.387 2.887c1.894 0 3.7-.387 5.338-1.087zM5.844 25.156c.313-.531 4.063-6.738 11.106-9.019.175-.056.356-.113.538-.162a50.041 50.041 0 00-1.106-2.319C9.563 15.7 2.938 15.612 2.338 15.606c-.006.137-.006.275-.006.419 0 3.506 1.331 6.712 3.512 9.131zM2.625 13.219c.612.006 6.244.031 12.637-1.662a86.017 86.017 0 00-5.069-7.906C6.368 5.457 3.505 8.982 2.624 13.22zM12.8 2.731a73.225 73.225 0 015.1 8c4.863-1.819 6.919-4.588 7.163-4.938A13.598 13.598 0 0016 2.349a14.22 14.22 0 00-3.2.381zm13.781 4.65c-.288.388-2.581 3.325-7.631 5.388.319.65.625 1.313.906 1.981.1.238.2.469.294.706 4.55-.569 9.069.344 9.519.438a13.628 13.628 0 00-3.087-8.512z"/></symbol>
<symbol id="i-external-link" viewBox="0 0 24 24" xmlns="http://www.w3.org/2000/svg"><g data-name="Layer 2"><g data-name="external-link"><path d="M20 11a1 1 0 00-1 1v6a1 1 0 01-1 1H6a1 1 0 01-1-1V6a1 1 0 011-1h6a1 1 0 000-2H6a3 3 0 00-3 3v12a3 3 0 003 3h12a3 3 0 003-3v-6a1 1 0 00-1-1z"/><path d="M16 5h1.58l-6.29 6.28a1 1 0 000 1.42 1 1 0 001.42 0L19 6.42V8a1 1 0 001 1 1 1 0 001-1V4a1 1 0 00-1-1h-4a1 1 0 000 2z"/></g></g></symbol>
<symbol id="i-facebook" viewBox="0 0 32 32"><path d="M31.997 15.999C31.997 7.163 24.834 0 15.998 0S-.001 7.163-.001 15.999c0 7.985 5.851 14.604 13.499 15.804v-11.18H9.436v-4.625h4.062v-3.525c0-4.01 2.389-6.225 6.043-6.225 1.75 0 3.581.313 3.581.313v3.937h-2.017c-1.987 0-2.607 1.233-2.607 2.498v3.001h4.437l-.709 4.625h-3.728v11.18c7.649-1.2 13.499-7.819 13.499-15.804z"/></symbol>
<symbol id="i-github" viewBox="0 0 32 32"><path d="M16 .396c-8.84 0-16 7.164-16 16 0 7.071 4.584 13.067 10.94 15.18.8.151 1.093-.344 1.093-.769 0-.38-.013-1.387-.02-2.72-4.451.965-5.389-2.147-5.389-2.147-.728-1.847-1.78-2.34-1.78-2.34-1.449-.992.112-.972.112-.972 1.607.112 2.451 1.648 2.451 1.648 1.427 2.447 3.745 1.74 4.66 1.331.144-1.035.556-1.74 1.013-2.14-3.553-.4-7.288-1.776-7.288-7.907 0-1.747.62-3.173 1.647-4.293-.18-.404-.72-2.031.14-4.235 0 0 1.34-.429 4.4 1.64 1.28-.356 2.64-.532 4-.54 1.36.008 2.72.184 4 .54 3.04-2.069 4.38-1.64 4.38-1.64.86 2.204.32 3.831.16 4.235 1.02 1.12 1.64 2.547 1.64 4.293 0 6.147-3.74 7.5-7.3 7.893.56.48 1.08 1.461 1.08 2.96 0 2.141-.02 3.861-.02 4.381 0 .42.28.92 1.1.76C27.42 29.455 32 23.455 32 16.395c0-8.836-7.164-16-16-16z"/></symbol>
<symbol id="i-globe" viewBox="0 0 24 28"><path d="M12 2c6.625 0 12 5.375 12 12s-5.375 12-12 12S0 20.625 0 14 5.375 2 12 2zm4.281 8.141c-.125.094-.203.266-.359.297.078-.016.156-.297.203-.359.094-.109.219-.172.344-.234.266-.109.531-.141.812-.187.266-.063.594-.063.797.172-.047-.047.328-.375.375-.391.141-.078.375-.047.469-.187.031-.047.031-.344.031-.344-.266.031-.359-.219-.375-.438 0 .016-.031.063-.094.125.016-.234-.281-.063-.391-.094-.359-.094-.313-.344-.422-.609-.063-.141-.234-.187-.297-.328-.063-.094-.094-.297-.234-.313-.094-.016-.266.328-.297.313-.141-.078-.203.031-.313.094-.094.063-.172.031-.266.078.281-.094-.125-.25-.266-.219.219-.063.109-.297-.016-.406h.078c-.031-.141-.469-.266-.609-.359s-.891-.25-1.047-.156c-.187.109.047.422.047.578.016.187-.187.234-.187.391 0 .266.5.219.375.578-.078.219-.375.266-.5.438-.125.156.016.438.141.547.125.094-.219.25-.266.281-.266.125-.469-.266-.531-.5-.047-.172-.063-.375-.25-.469-.094-.031-.391-.078-.453.016-.094-.234-.422-.328-.641-.406-.313-.109-.578-.109-.906-.063.109-.016-.031-.5-.297-.422.078-.156.047-.328.078-.484a.887.887 0 01.187-.359c.031-.063.375-.422.266-.438.266.031.562.047.781-.172.141-.141.203-.375.344-.531.203-.234.453.063.672.078.313.016.297-.328.125-.484.203.016.031-.359-.078-.406-.141-.047-.672.094-.391.203-.063-.031-.438.75-.656.359-.063-.078-.094-.406-.234-.422-.125 0-.203.141-.25.234.078-.203-.438-.344-.547-.359.234-.156.047-.328-.125-.422-.125-.078-.516-.141-.625-.016-.297.359.313.406.469.5.047.031.234.141.125.219-.094.047-.375.125-.406.187-.094.141.109.297-.031.438-.141-.141-.141-.375-.25-.531.141.172-.562.078-.547.078-.234 0-.609.156-.781-.078-.031-.063-.031-.422.063-.344-.141-.109-.234-.219-.328-.281a9.5 9.5 0 00-1.469.641.26.26 0 00.187-.016c.125-.047.234-.125.359-.187.156-.063.484-.25.656-.109.016-.031.063-.063.078-.078.109.125.219.25.313.391-.125-.063-.328-.031-.469-.016-.109.031-.297.063-.344.187.047.078.109.203.078.281-.203-.141-.359-.375-.641-.406-.125 0-.25 0-.344.016a10.15 10.15 0 00-3.672 3.469.442.442 0 00.187.125c.156.047 0 .5.297.266.094.078.109.187.047.297.016-.016.641.391.688.422.109.094.281.203.328.328.031.109-.063.234-.156.281-.016-.031-.25-.266-.281-.203-.047.078 0 .5.172.484-.25.016-.141.984-.203 1.172 0 .016.031.016.031.016-.047.187.109.922.422.844-.203.047.359.766.438.812.203.141.438.234.578.438.156.219.156.547.375.719-.063.187.328.406.313.672-.031.016-.047.016-.078.031.078.219.375.219.484.422.063.125 0 .422.203.359.031-.344-.203-.688-.375-.969-.094-.156-.187-.297-.266-.453-.078-.141-.094-.313-.156-.469.063.016.406.141.375.187-.125.313.5.859.672 1.062.047.047.406.516.219.516.203 0 .484.313.578.469.141.234.109.531.203.781.094.313.531.453.781.594.219.109.406.266.625.344.328.125.406.016.688-.031.406-.063.453.391.781.562.203.109.641.266.859.172-.094.031.328.672.359.719.141.187.406.281.562.469a.244.244 0 00.109-.141c-.063.172.234.5.391.469.172-.031.219-.375.219-.5-.313.156-.594.031-.766-.281-.031-.078-.281-.516-.063-.516.297 0 .094-.234.063-.453s-.25-.359-.359-.547c-.094.187-.406.141-.5-.016 0 .047-.047.125-.047.187-.078 0-.156.016-.234-.016.031-.187.047-.422.094-.625.078-.281.594-.828-.078-.797-.234.016-.328.109-.406.313-.078.187-.047.359-.266.453-.141.063-.609.031-.75-.047-.297-.172-.5-.719-.5-1.031-.016-.422.203-.797 0-1.188.094-.078.187-.234.297-.313.094-.063.203.047.25-.141-.047-.031-.109-.094-.125-.094.234.109.672-.156.875 0 .125.094.266.125.344-.031.016-.047-.109-.234-.047-.359.047.266.219.313.453.141.094.094.344.063.516.156.172.109.203.281.406.047.125.187.141.187.187.375.047.172.141.609.297.688.328.203.25-.344.219-.531-.016-.016-.016-.531-.031-.531-.5-.109-.313-.5-.031-.766.047-.031.406-.156.562-.281.141-.125.313-.344.234-.547.078 0 .141-.063.172-.141-.047-.016-.234-.172-.266-.156.109-.063.094-.156.031-.25.156-.094.078-.266.234-.328.172.234.516-.031.344-.219.156-.219.516-.109.609-.313.234.063.063-.234.187-.406.109-.141.297-.141.438-.219 0 .016.391-.219.266-.234.266.031.797-.25.391-.484.063-.141-.141-.203-.281-.234.109-.031.25.031.344-.031.203-.141.063-.203-.109-.25-.219-.063-.5.078-.672.187zm-2.547 13.703a9.912 9.912 0 005.484-2.953c-.094-.094-.266-.063-.391-.125-.125-.047-.219-.094-.375-.125.031-.313-.313-.422-.531-.578-.203-.156-.328-.328-.625-.266-.031.016-.344.125-.281.187-.203-.172-.297-.266-.562-.344-.25-.078-.422-.391-.672-.109-.125.125-.063.313-.125.438-.203-.172.187-.375.031-.562-.187-.219-.516.141-.672.234-.094.078-.203.109-.266.203-.078.109-.109.25-.172.359-.047-.125-.313-.094-.328-.187.063.375.063.766.141 1.141.047.219 0 .578-.187.75s-.422.359-.453.625c-.031.187.016.359.187.406.016.234-.25.406-.234.656 0 .016.016.172.031.25z"/></symbol>
<symbol id="i-gmail" viewBox="0 0 32 32"><path d="M32 6v20c0 1.133-.867 2-2 2h-2V9.849l-12 8.617L4 9.849V28H2c-1.135 0-2-.867-2-2V6c0-.567.216-1.067.575-1.424A1.98 1.98 0 012 4h.667L16 13.667 29.333 4H30c.567 0 1.067.216 1.425.576.36.357.575.857.575 1.424z"/></symbol>
<symbol id="i-heart" viewBox="0 0 32 32"><path d="M23.6 2c-3.363 0-6.258 2.736-7.599 5.594C14.659 4.736 11.764 2 8.4 2 3.763 2 0 5.764 0 10.401c0 9.433 9.516 11.906 16.001 21.232C22.131 22.365 32 19.533 32 10.401 32 5.764 28.237 2 23.6 2z"/></symbol>
<symbol id="i-instagram" viewBox="0 0 32 32"><path d="M16 0c-4.347 0-4.889.02-6.596.096C7.7.176 6.54.444 5.52.84c-1.052.408-1.945.956-2.835 1.845S1.246 4.466.84 5.52C.444 6.54.175 7.7.096 9.404.016 11.111 0 11.653 0 16s.02 4.889.096 6.596c.08 1.703.348 2.864.744 3.884a7.854 7.854 0 001.845 2.835A7.807 7.807 0 005.52 31.16c1.021.395 2.181.665 3.884.744 1.707.08 2.249.096 6.596.096s4.889-.02 6.596-.096c1.703-.08 2.864-.349 3.884-.744a7.867 7.867 0 002.835-1.845 7.799 7.799 0 001.845-2.835c.395-1.02.665-2.181.744-3.884.08-1.707.096-2.249.096-6.596s-.02-4.889-.096-6.596c-.08-1.703-.349-2.865-.744-3.884a7.859 7.859 0 00-1.845-2.835A7.786 7.786 0 0026.48.84C25.46.444 24.299.175 22.596.096 20.889.016 20.347 0 16 0zm0 2.88c4.271 0 4.78.021 6.467.095 1.56.073 2.407.332 2.969.553.749.289 1.28.636 1.843 1.195a4.95 4.95 0 011.195 1.841c.219.563.48 1.409.551 2.969.076 1.688.093 2.195.093 6.467s-.02 4.78-.099 6.467c-.081 1.56-.341 2.407-.561 2.969-.299.749-.639 1.28-1.199 1.843a5.002 5.002 0 01-1.84 1.195c-.56.219-1.42.48-2.98.551-1.699.076-2.199.093-6.479.093-4.281 0-4.781-.02-6.479-.099-1.561-.081-2.421-.341-2.981-.561-.759-.299-1.28-.639-1.839-1.199a4.867 4.867 0 01-1.2-1.84c-.22-.56-.479-1.42-.56-2.98-.06-1.68-.081-2.199-.081-6.459 0-4.261.021-4.781.081-6.481.081-1.56.34-2.419.56-2.979.28-.76.639-1.28 1.2-1.841.559-.559 1.08-.919 1.839-1.197.56-.221 1.401-.481 2.961-.561 1.7-.06 2.2-.08 6.479-.08zm0 4.904A8.215 8.215 0 007.784 16c0 4.54 3.68 8.216 8.216 8.216 4.54 0 8.216-3.68 8.216-8.216 0-4.54-3.68-8.216-8.216-8.216zm0 13.549c-2.947 0-5.333-2.387-5.333-5.333s2.387-5.333 5.333-5.333 5.333 2.387 5.333 5.333-2.387 5.333-5.333 5.333zM26.461 7.46a1.921 1.921 0 01-3.84 0 1.92 1.92 0 013.84 0z"/></symbol>
<symbol id="i-linkedin" viewBox="0 0 32 32"><path d="M27.263 27.269h-4.739v-7.425c0-1.771-.036-4.049-2.469-4.049-2.471 0-2.848 1.927-2.848 3.919v7.556h-4.739V12.001h4.552v2.081h.061c.636-1.2 2.183-2.467 4.493-2.467 4.801 0 5.689 3.16 5.689 7.273zM7.116 9.911a2.75 2.75 0 01-2.751-2.753 2.752 2.752 0 112.751 2.753zm2.376 17.358H4.74V12h4.752zM29.633 0H2.361C1.056 0 0 1.032 0 2.305v27.389c0 1.275 1.056 2.305 2.361 2.305h27.268c1.304 0 2.371-1.031 2.371-2.305V2.305C32 1.032 30.933 0 29.629 0z"/></symbol>
<symbol id="i-medium" viewBox="0 0 32 32"><path d="M0 0v32h32V0zm26.584 7.581l-1.716 1.645a.5.5 0 00-.191.486v-.003 12.089a.502.502 0 00.189.481l.001.001 1.676 1.645v.361h-8.429v-.36l1.736-1.687c.171-.171.171-.22.171-.48v-9.773l-4.827 12.26h-.653L8.92 11.986v8.217a1.132 1.132 0 00.311.943l2.259 2.739v.361H5.087v-.36l2.26-2.74a1.09 1.09 0 00.289-.949l.001.007v-9.501a.83.83 0 00-.27-.702L7.366 10 5.358 7.581v-.36h6.232l4.817 10.564L20.642 7.22h5.941z"/></symbol>
<symbol id="i-paperplane" viewBox="0 0 28 28"><path d="M27.563.172c.328.234.484.609.422 1l-4 24a1.002 1.002 0 01-.984.828c-.125 0-.25-.031-.375-.078l-7.078-2.891-3.781 4.609a.971.971 0 01-.766.359.894.894 0 01-.344-.063.997.997 0 01-.656-.938v-5.453l13.5-16.547L6.798 19.451.626 16.92a.99.99 0 01-.625-.859 1.01 1.01 0 01.5-.922l26-15a.966.966 0 01.5-.141c.203 0 .406.063.562.172z"/></symbol>
<symbol id="i-pinterest" viewBox="0 0 32 32"><path d="M16.023 0C7.195 0 .039 7.156.039 15.983c0 6.772 4.211 12.556 10.157 14.883-.14-1.265-.265-3.204.055-4.585.292-1.249 1.875-7.943 1.875-7.943s-.479-.96-.479-2.375c0-2.217 1.289-3.881 2.891-3.881 1.365 0 2.024 1.025 2.024 2.251 0 1.372-.871 3.423-1.323 5.323-.38 1.591.8 2.887 2.367 2.887 2.837 0 5.024-2.993 5.024-7.316 0-3.815-2.751-6.492-6.677-6.492-4.547 0-7.212 3.416-7.212 6.932 0 1.377.525 2.857 1.185 3.655.132.16.149.3.113.46-.12.5-.391 1.599-.445 1.817-.071.3-.229.361-.535.22-1.993-.92-3.244-3.837-3.244-6.195 0-5.035 3.664-9.669 10.56-9.669 5.544 0 9.856 3.956 9.856 9.231 0 5.513-3.476 9.949-8.311 9.949-1.619 0-3.139-.839-3.677-1.839l-.999 3.797c-.359 1.393-1.339 3.136-1.997 4.195 1.497.46 3.075.713 4.733.713 8.809 0 15.98-7.153 15.98-15.983C31.96 7.187 24.789.035 15.98.035z"/></symbol>
<symbol id="i-reddit" viewBox="0 0 28 28"><path d="M17.109 18.234c.141.141.141.359 0 .484-.891.891-2.609.969-3.109.969s-2.219-.078-3.109-.969c-.141-.125-.141-.344 0-.484a.34.34 0 01.469 0c.562.578 1.781.766 2.641.766s2.063-.187 2.641-.766a.34.34 0 01.469 0zm-4.796-2.828c0 .766-.625 1.391-1.391 1.391a1.397 1.397 0 01-1.406-1.391A1.4 1.4 0 0110.922 14c.766 0 1.391.625 1.391 1.406zm6.171 0c0 .766-.625 1.391-1.406 1.391a1.394 1.394 0 01-1.391-1.391c0-.781.625-1.406 1.391-1.406a1.4 1.4 0 011.406 1.406zm3.922-1.875a1.867 1.867 0 00-1.875-1.859c-.531 0-1 .219-1.344.562-1.266-.875-2.969-1.437-4.859-1.5l.984-4.422 3.125.703c0 .766.625 1.391 1.391 1.391.781 0 1.406-.641 1.406-1.406s-.625-1.406-1.406-1.406a1.42 1.42 0 00-1.25.781l-3.453-.766c-.172-.047-.344.078-.391.25l-1.078 4.875c-1.875.078-3.563.641-4.828 1.516a1.877 1.877 0 00-1.359-.578 1.867 1.867 0 00-1.875 1.859c0 .75.438 1.375 1.062 1.687a4.024 4.024 0 00-.094.875c0 2.969 3.344 5.375 7.453 5.375 4.125 0 7.469-2.406 7.469-5.375 0-.297-.031-.609-.109-.891a1.878 1.878 0 001.031-1.672zM28 14c0 7.734-6.266 14-14 14S0 21.734 0 14 6.266 0 14 0s14 6.266 14 14z"/></symbol>
<symbol id="i-resume" viewBox="0 0 32 32"><path d="M26.313 18.421c-.427-.42-1.372-.643-2.812-.662-.974-.011-2.147.075-3.38.248-.552-.319-1.122-.665-1.568-1.083-1.202-1.122-2.205-2.68-2.831-4.394.041-.16.075-.301.108-.444 0 0 .677-3.846.498-5.146a1.526 1.526 0 00-.088-.369l-.059-.151c-.184-.425-.545-.875-1.111-.85l-.341-.011c-.631 0-1.146.323-1.281.805-.411 1.514.013 3.778.781 6.711l-.197.478c-.55 1.34-1.238 2.689-1.846 3.88l-.079.155a65.82 65.82 0 01-1.745 3.213l-.543.287c-.04.021-.97.513-1.188.645-1.852 1.106-3.079 2.361-3.282 3.357-.065.318-.017.725.313.913l.525.264c.228.114.468.172.714.172 1.319 0 2.85-1.643 4.959-5.324a49.318 49.318 0 017.638-1.815c1.852 1.043 4.129 1.767 5.567 1.767.255 0 .475-.024.654-.072a1.11 1.11 0 00.65-.444c.279-.42.335-.998.26-1.59-.023-.176-.163-.393-.315-.541zM6.614 25.439c.241-.658 1.192-1.958 2.6-3.111.088-.072.306-.276.506-.466-1.472 2.348-2.458 3.283-3.106 3.577zM14.951 6.24c.424 0 .665 1.069.685 2.07s-.214 1.705-.505 2.225c-.241-.77-.357-1.984-.357-2.778 0 0-.018-1.517.177-1.517zm-2.487 13.682c.295-.529.603-1.086.917-1.677a31.984 31.984 0 001.609-3.511c.716 1.303 1.608 2.41 2.656 3.297.131.111.269.222.415.333-2.132.422-3.974.935-5.596 1.558zm13.439-.12c-.13.081-.502.128-.741.128-.772 0-1.727-.353-3.066-.927.515-.038.986-.057 1.409-.057.774 0 1.004-.003 1.761.19s.767.585.637.667z"/><path d="M28.681 7.159c-.694-.947-1.662-2.053-2.724-3.116s-2.169-2.03-3.116-2.724C21.229.137 20.448 0 20 0H4.5A2.503 2.503 0 002 2.5v27C2 30.878 3.121 32 4.5 32h23c1.378 0 2.5-1.122 2.5-2.5V10c0-.448-.137-1.23-1.319-2.841zm-4.138-1.702A27.334 27.334 0 0126.811 8H22V3.189a27.334 27.334 0 012.543 2.268zM28 29.5c0 .271-.229.5-.5.5h-23a.507.507 0 01-.5-.5v-27c0-.271.229-.5.5-.5H20v7a1 1 0 001 1h7v19.5z"/></symbol>
<symbol id="i-skype" viewBox="0 0 32 32"><path d="M13.3 1.169c-.05-.031-.106-.056-.156-.081-.056.012-.106.019-.162.031l.319.05zM1.15 13.156a1.84 1.84 0 00-.025.162c.031.05.05.1.081.15l-.056-.313zM30.837 18.831c.012-.056.019-.113.031-.169-.031-.05-.05-.1-.081-.15l.05.319zM18.5 30.719c.05.031.106.056.156.081a1.64 1.64 0 01.169-.025l-.325-.056z"/><path d="M30.869 18.663c-.012.056-.019.113-.031.169l-.056-.325c.031.056.056.106.087.156.163-.9.25-1.819.25-2.738a15.067 15.067 0 00-4.426-10.687 15.133 15.133 0 00-4.8-3.237A15.023 15.023 0 0016.012.813c-.963 0-1.925.088-2.863.269h-.006c.05.025.106.05.156.081l-.319-.05c.056-.012.106-.019.162-.031A8.99 8.99 0 008.948.032C6.56.032 4.31.963 2.623 2.651S.004 6.588.004 8.976c0 1.519.394 3.019 1.125 4.338a1.84 1.84 0 00.025-.162l.056.319c-.031-.05-.056-.1-.081-.15-.15.856-.225 1.731-.225 2.606a15.072 15.072 0 004.425 10.681 15.1 15.1 0 004.806 3.238 15.023 15.023 0 008.525.95c-.05-.031-.1-.056-.156-.081l.325.056a1.64 1.64 0 01-.169.025 8.956 8.956 0 004.4 1.163c2.387 0 4.637-.931 6.325-2.619s2.619-3.938 2.619-6.325a9.07 9.07 0 00-1.137-4.35zm-14.8 6.518c-5.369 0-7.769-2.637-7.769-4.619 0-1.012.75-1.725 1.781-1.725 2.3 0 1.7 3.3 5.988 3.3 2.194 0 3.406-1.194 3.406-2.413 0-.731-.363-1.544-1.806-1.9l-4.775-1.194c-3.844-.963-4.544-3.044-4.544-5 0-4.056 3.819-5.581 7.406-5.581 3.306 0 7.2 1.825 7.2 4.263 0 1.044-.906 1.65-1.938 1.65-1.962 0-1.6-2.713-5.55-2.713-1.963 0-3.044.887-3.044 2.156s1.55 1.675 2.894 1.981l3.538.787c3.869.863 4.85 3.125 4.85 5.25 0 3.294-2.531 5.756-7.637 5.756z"/></symbol>
<symbol id="i-snapchat" viewBox="0 0 24 28"><path d="M19.984 17.938a.407.407 0 00-.344-.422c-1.422-.313-2.5-1.297-3.094-2.609-.047-.125-.109-.25-.109-.391 0-.703 1.953-.562 1.953-1.563 0-.422-.516-.688-.891-.688-.359 0-.641.25-.984.25-.063 0-.125-.016-.187-.031.031-.594.078-1.188.078-1.781 0-.547-.031-1.297-.266-1.781-.75-1.625-2.203-2.578-3.984-2.578-1.953 0-3.437.719-4.297 2.578-.234.484-.266 1.234-.266 1.781 0 .594.047 1.188.078 1.781-.063.031-.141.031-.219.031-.359 0-.641-.234-.969-.234-.391 0-.875.25-.875.688 0 .969 1.953.844 1.953 1.547 0 .141-.063.266-.109.391-.609 1.313-1.656 2.297-3.094 2.609a.407.407 0 00-.344.422c0 .719 1.656.984 2.141 1.062.141.375.078 1.031.641 1.031.391 0 .781-.141 1.203-.141 1.641 0 2.078 1.484 3.984 1.484 1.984 0 2.359-1.484 4.016-1.484.422 0 .812.125 1.219.125.547 0 .484-.656.625-1.016.484-.078 2.141-.344 2.141-1.062zM24 14c0 6.625-5.375 12-12 12S0 20.625 0 14 5.375 2 12 2s12 5.375 12 12z"/></symbol>
<symbol id="i-twitter" viewBox="0 0 32 32"><path d="M31.939 6.092a13.31 13.31 0 01-3.767 1.033 6.613 6.613 0 002.884-3.631 13.55 13.55 0 01-4.169 1.579A6.56 6.56 0 0015.539 9.55c0 .52.06 1.02.169 1.499-5.453-.257-10.287-2.876-13.521-6.835a6.432 6.432 0 00-.888 3.3 6.56 6.56 0 002.917 5.461 6.554 6.554 0 01-2.971-.821v.081a6.564 6.564 0 005.261 6.436 6.663 6.663 0 01-2.949.113 6.582 6.582 0 006.139 4.556 13.156 13.156 0 01-8.136 2.807c-.52 0-1.039-.031-1.56-.089a18.657 18.657 0 0010.076 2.945c12.072 0 18.665-9.995 18.665-18.648 0-.279 0-.56-.02-.84 1.281-.919 2.4-2.08 3.28-3.397z"/></symbol>
<symbol id="i-wechat" viewBox="0 0 32 28"><path d="M9.063 7.203c0-.859-.562-1.422-1.422-1.422-.844 0-1.703.562-1.703 1.422 0 .844.859 1.406 1.703 1.406.859 0 1.422-.562 1.422-1.406zm11.609 7.922c0-.562-.562-1.125-1.422-1.125-.562 0-1.125.562-1.125 1.125 0 .578.562 1.141 1.125 1.141.859 0 1.422-.562 1.422-1.141zm-3.688-7.922c0-.859-.562-1.422-1.406-1.422-.859 0-1.703.562-1.703 1.422 0 .844.844 1.406 1.703 1.406.844 0 1.406-.562 1.406-1.406zm9.922 7.922c0-.562-.578-1.125-1.422-1.125-.562 0-1.125.562-1.125 1.125 0 .578.562 1.141 1.125 1.141.844 0 1.422-.562 1.422-1.141zM22.75 8.922a8.375 8.375 0 00-1.094-.063c-5.375 0-9.625 4.016-9.625 8.953 0 .828.125 1.625.359 2.375-.359.031-.703.047-1.062.047-1.422 0-2.547-.281-3.969-.562l-3.953 1.984 1.125-3.406C1.703 16.266 0 13.703 0 10.594 0 5.203 5.094.969 11.328.969c5.563 0 10.453 3.391 11.422 7.953zM32 17.687c0 2.547-1.687 4.813-3.969 6.516l.859 2.828-3.109-1.703c-1.141.281-2.281.578-3.406.578-5.391 0-9.625-3.687-9.625-8.219s4.234-8.219 9.625-8.219c5.094 0 9.625 3.687 9.625 8.219z"/></symbol>
<symbol id="i-whatsapp" viewBox="0 0 32 32"><path d="M23.331 19.176c-.401-.2-2.356-1.156-2.72-1.288-.364-.135-.631-.2-.897.2-.263.393-1.028 1.285-1.259 1.549-.233.26-.465.28-.861.1-.4-.2-1.684-.62-3.204-1.98-1.184-1.06-1.979-2.36-2.213-2.76-.232-.4-.025-.62.173-.82.181-.18.401-.46.601-.697.195-.241.259-.401.396-.661.133-.28.065-.5-.033-.699-.1-.2-.896-2.16-1.229-2.941-.32-.779-.649-.68-.896-.68-.229-.02-.495-.02-.761-.02s-.697.099-1.063.479c-.364.4-1.393 1.36-1.393 3.3s1.427 3.82 1.625 4.1c.199.26 2.807 4.26 6.8 5.98.952.4 1.693.64 2.272.839.952.303 1.82.26 2.507.161.765-.121 2.356-.961 2.688-1.901.34-.94.34-1.72.24-1.9-.099-.18-.36-.28-.76-.46zM16.081 29h-.021c-2.36 0-4.699-.64-6.74-1.84l-.48-.285-5 1.3 1.34-4.86-.319-.5a13.156 13.156 0 01-2.021-7.013c0-7.26 5.94-13.18 13.256-13.18 3.539 0 6.86 1.38 9.361 3.88 2.5 2.479 3.879 5.8 3.879 9.32-.005 7.259-5.947 13.18-13.247 13.18zM27.36 4.599C24.32 1.66 20.32 0 16.06 0 7.284 0 .139 7.112.135 15.857c0 2.795.732 5.52 2.127 7.927L.001 32l8.447-2.203a16.087 16.087 0 007.613 1.929h.008c8.78 0 15.928-7.115 15.932-15.861 0-4.235-1.653-8.22-4.66-11.215z"/></symbol>
<symbol id="i-youtubeplay" viewBox="0 0 28 28"><path d="M11.109 17.625l7.562-3.906-7.562-3.953v7.859zM14 4.156c5.891 0 9.797.281 9.797.281.547.063 1.75.063 2.812 1.188 0 0 .859.844 1.109 2.781.297 2.266.281 4.531.281 4.531v2.125s.016 2.266-.281 4.531c-.25 1.922-1.109 2.781-1.109 2.781-1.062 1.109-2.266 1.109-2.812 1.172 0 0-3.906.297-9.797.297-7.281-.063-9.516-.281-9.516-.281-.625-.109-2.031-.078-3.094-1.188 0 0-.859-.859-1.109-2.781C-.016 17.327 0 15.062 0 15.062v-2.125s-.016-2.266.281-4.531C.531 6.469 1.39 5.625 1.39 5.625 2.452 4.5 3.656 4.5 4.202 4.437c0 0 3.906-.281 9.797-.281z"/></symbol>
</svg>